:FULLY-SPECIFIED
:FORCE-ALL-JOINTS-BE-3DOF
:DEGREES
485
root 10.8785 17.2849 31.6207 4.37476 4.20257 4.42031
lfemur 10.2639 2.50354 -29.2818
ltibia 2.69398 0 0
lfoot -15.0131 4.41865 0
ltoes 2.8379 0 0
rfemur -40.1642 9.04844 10.2917
rtibia 30.0733 0 0
rfoot -22.5808 -7.17867 0
rtoes -14.9791 0 0
lowerback -6.48508 -4.64966 -4.87889
upperback 0.928606 -5.87942 1.47375
thorax 5.25204 -3.07439 3.59017
lowerneck -22.9968 -2.39328 -9.58407
upperneck 24.5196 -2.82097 10.0182
head 12.1908 -0.843633 4.96427
lclavicle 2.92876e-14 -5.30087e-16 0
lhumerus -8.85529 -22.3201 83.9286
lradius 32.9352 0 0
lwrist 7.63789 0 0
lhand -17.9545 -25.9204 0
lfingers 7.12502 0 0
lthumb 8.31422 3.89579 0
rclavicle 2.92876e-14 -5.30087e-16 0
rhumerus -47.9614 8.75593 -85.6723
rradius 38.0057 0 0
rwrist -19.8873 0 0
rhand -31.4222 -23.5889 0
rfingers 7.12502 0 0
rthumb -4.69082 -53.5164 0
486
root 10.8734 17.2717 31.7635 4.39864 4.21775 4.63451
lfemur 11.499 2.46355 -29.4428
ltibia 1.34699 0 0
lfoot -14.7933 4.52011 0
ltoes 2.40856 0 0
rfemur -40.6483 9.81502 9.61864
rtibia 29.4284 0 0
rfoot -23.155 -7.14551 0
rtoes -15.7205 0 0
lowerback -6.51215 -4.69244 -5.05942
upperback 0.897515 -5.91767 1.41042
thorax 5.25064 -3.09669 3.6184
lowerneck -22.8712 -2.38471 -9.59034
upperneck 24.4783 -2.81874 10.0289
head 12.1497 -0.844264 4.9664
lclavicle 3.9318e-14 -4.63831e-15 0
lhumerus -9.11861 -22.5557 84.0874
lradius 33.2929 0 0
lwrist 7.57219 0 0
lhand -18.0648 -26.0718 0
lfingers 7.12502 0 0
lthumb 8.20781 3.74861 0
rclavicle 3.9318e-14 -4.63831e-15 0
rhumerus -48.1673 8.61268 -85.6156
rradius 37.7548 0 0
rwrist -19.817 0 0
rhand -31.248 -23.4689 0
rfingers 7.12502 0 0
rthumb -4.52261 -53.4002 0
487
root 10.8684 17.2584 31.9063 4.42251 4.23293 4.84871
lfemur 12.734 2.42356 -29.6038
ltibia 2.8625e-14 0 0
lfoot -14.5736 4.62157 0
ltoes 1.97923 0 0
rfemur -41.1324 10.5816 8.94555
rtibia 28.7835 0 0
rfoot -23.7293 -7.11235 0
rtoes -16.4619 0 0
lowerback -6.53922 -4.73521 -5.23995
upperback 0.866424 -5.95593 1.34709
thorax 5.24925 -3.11898 3.64664
lowerneck -22.7455 -2.37613 -9.59661
upperneck 24.4371 -2.81651 10.0396
head 12.1086 -0.844895 4.96853
lclavicle 4.93483e-14 -8.74653e-15 0
lhumerus -9.38194 -22.7914 84.2462
lradius 33.6506 0 0
lwrist 7.50649 0 0
lhand -18.175 -26.2233 0
lfingers 7.12502 0 0
lthumb 8.1014 3.60143 0
rclavicle 4.93483e-14 -8.74653e-15 0
rhumerus -48.3732 8.46943 -85.559
rradius 37.504 0 0
rwrist -19.7468 0 0
rhand -31.0738 -23.3489 0
rfingers 7.12502 0 0
rthumb -4.35441 -53.2841 0
488
root 10.8519 17.2362 32.0565 4.47954 4.35187 4.93659
lfemur 13.2628 2.26967 -29.5649
ltibia 2.43843e-14 0 0
lfoot -14.8179 4.60682 0
ltoes 2.10789 0 0
rfemur -41.4268 11.1589 8.52349
rtibia 28.5193 0 0
rfoot -24.6919 -7.3459 0
rtoes -13.5432 0 0
lowerback -6.42738 -4.81719 -5.32295
upperback 0.720297 -6.06534 1.29812
thorax 5.04856 -3.16709 3.64495
lowerneck -22.7123 -2.37572 -9.64386
upperneck 24.5934 -2.86921 10.2243
head 12.1744 -0.851179 5.04864
lclavicle 4.5501e-14 -3.57813e-15 0
lhumerus -10.0338 -23.0488 84.4998
lradius 33.9143 0 0
lwrist 7.32889 0 0
lhand -17.5816 -26.2327 0
lfingers 7.12502 0 0
lthumb 8.67393 3.56495 0
rclavicle 4.5501e-14 -3.57813e-15 0
rhumerus -48.742 8.31997 -85.5777
rradius 37.2574 0 0
rwrist -19.5738 0 0
rhand -30.7258 -23.3212 0
rfingers 7.12502 0 0
rthumb -4.01829 -53.2617 0
489
root 10.8353 17.214 32.2066 4.53658 4.47081 5.02448
lfemur 13.7916 2.11577 -29.526
ltibia 2.01435e-14 0 0
lfoot -15.0623 4.59206 0
ltoes 2.23655 0 0
rfemur -41.7212 11.7362 8.10142
rtibia 28.2551 0 0
rfoot -25.6546 -7.57946 0
rtoes -10.6244 0 0
lowerback -6.31553 -4.89917 -5.40594
upperback 0.57417 -6.17476 1.24915
thorax 4.84787 -3.2152 3.64325
lowerneck -22.6791 -2.37532 -9.6911
upperneck 24.7497 -2.92191 10.409
head 12.2401 -0.857464 5.12875
lclavicle 4.16537e-14 1.59028e-15 0
lhumerus -10.6857 -23.3062 84.7534
lradius 34.178 0 0
lwrist 7.15129 0 0
lhand -16.9881 -26.2422 0
lfingers 7.12502 0 0
lthumb 9.24647 3.52847 0
rclavicle 4.16537e-14 1.59028e-15 0
rhumerus -49.1109 8.17052 -85.5964
rradius 37.0109 0 0
rwrist -19.4009 0 0
rhand -30.3777 -23.2935 0
rfingers 7.12502 0 0
rthumb -3.68217 -53.2393 0
490
root 10.8188 17.1918 32.3568 4.59361 4.58976 5.11236
lfemur 14.3204 1.96188 -29.4871
ltibia 1.59028e-14 0 0
lfoot -15.3067 4.5773 0
ltoes 2.36522 0 0
rfemur -42.0156 12.3135 7.67936
rtibia 27.9909 0 0
rfoot -26.6172 -7.81301 0
rtoes -7.70571 0 0
lowerback -6.20369 -4.98114 -5.48893
upperback 0.428043 -6.28417 1.20018
thorax 4.64718 -3.26331 3.64156
lowerneck -22.6459 -2.37491 -9.73835
upperneck 24.906 -2.9746 10.5937
head 12.3059 -0.863749 5.20887
lclavicle 3.78063e-14 6.75868e-15 0
lhumerus -11.3376 -23.5636 85.007
lradius 34.4416 0 0
lwrist 6.97369 0 0
lhand -16.3947 -26.2516 0
lfingers 7.12502 0 0
lthumb 9.819 3.49199 0
rclavicle 3.78063e-14 6.75868e-15 0
rhumerus -49.4797 8.02106 -85.615
rradius 36.7643 0 0
rwrist -19.2279 0 0
rhand -30.0296 -23.2659 0
rfingers 7.12502 0 0
rthumb -3.34605 -53.2169 0
